<svg preserveAspectRatio="none" width="100%" height="100%" overflow="visible" style="display: block;" viewBox="0 0 14.4 14.4" fill="none" xmlns="http://www.w3.org/2000/svg">
<g id="component">
<path id="Vector" d="M5.51803 4.10399C5.60074 4.27091 5.75546 4.42563 6.06492 4.73509C6.37434 5.04454 6.52908 5.19926 6.696 5.28197C7.01358 5.43934 7.38642 5.43934 7.704 5.28197C7.87092 5.19926 8.02566 5.04454 8.33508 4.73509C8.64456 4.42563 8.79924 4.27091 8.88198 4.10399C9.03936 3.78643 9.03936 3.41357 8.88198 3.09601C8.79924 2.92909 8.64456 2.77437 8.33508 2.46491C8.02566 2.15546 7.87092 2.00074 7.704 1.91803C7.38642 1.76066 7.01358 1.76066 6.696 1.91803C6.52908 2.00074 6.37434 2.15546 6.06492 2.46491C5.75546 2.77437 5.60074 2.92909 5.51803 3.09601C5.36066 3.41357 5.36066 3.78643 5.51803 4.10399Z" stroke="var(--stroke-0, #00A3F6)" stroke-width="0.9" stroke-linejoin="round"/>
<path id="Vector_2" d="M1.91803 7.704C2.00074 7.87092 2.15546 8.02566 2.46491 8.33508C2.77437 8.64456 2.92909 8.79924 3.09601 8.88198C3.41357 9.03936 3.78643 9.03936 4.10399 8.88198C4.27091 8.79924 4.42563 8.64456 4.73509 8.33508C5.04454 8.02566 5.19926 7.87092 5.28197 7.704C5.43934 7.38642 5.43934 7.01358 5.28197 6.696C5.19926 6.52908 5.04454 6.37434 4.73509 6.06492C4.42563 5.75546 4.27091 5.60074 4.10399 5.51803C3.78643 5.36066 3.41357 5.36066 3.09601 5.51803C2.92909 5.60074 2.77437 5.75546 2.46491 6.06492C2.15546 6.37434 2.00074 6.52908 1.91803 6.696C1.76066 7.01358 1.76066 7.38642 1.91803 7.704Z" stroke="var(--stroke-0, #00A3F6)" stroke-width="0.9" stroke-linejoin="round"/>
<path id="Vector_3" d="M9.11803 7.704C9.20077 7.87092 9.35545 8.02566 9.66493 8.33508C9.97435 8.64456 10.1291 8.79924 10.296 8.88198C10.6136 9.03936 10.9864 9.03936 11.304 8.88198C11.4709 8.79924 11.6257 8.64456 11.9351 8.33508C12.2446 8.02566 12.3993 7.87092 12.482 7.704C12.6394 7.38642 12.6394 7.01358 12.482 6.696C12.3993 6.52908 12.2446 6.37434 11.9351 6.06492C11.6257 5.75546 11.4709 5.60074 11.304 5.51803C10.9864 5.36066 10.6136 5.36066 10.296 5.51803C10.1291 5.60074 9.97435 5.75546 9.66493 6.06492C9.35545 6.37434 9.20077 6.52908 9.11803 6.696C8.96066 7.01358 8.96066 7.38642 9.11803 7.704Z" stroke="var(--stroke-0, #00A3F6)" stroke-width="0.9" stroke-linejoin="round"/>
<path id="Vector_4" d="M5.51803 11.304C5.60074 11.4709 5.75546 11.6257 6.06492 11.9351C6.37434 12.2446 6.52908 12.3993 6.696 12.482C7.01358 12.6394 7.38642 12.6394 7.704 12.482C7.87092 12.3993 8.02566 12.2446 8.33508 11.9351C8.64456 11.6257 8.79924 11.4709 8.88198 11.304C9.03936 10.9864 9.03936 10.6136 8.88198 10.296C8.79924 10.1291 8.64456 9.97435 8.33508 9.66493C8.02566 9.35545 7.87092 9.20077 7.704 9.11803C7.38642 8.96066 7.01358 8.96066 6.696 9.11803C6.52908 9.20077 6.37434 9.35545 6.06492 9.66493C5.75546 9.97435 5.60074 10.1291 5.51803 10.296C5.36066 10.6136 5.36066 10.9864 5.51803 11.304Z" stroke="var(--stroke-0, #00A3F6)" stroke-width="0.9" stroke-linejoin="round"/>
</g>
</svg>
