<svg preserveAspectRatio="none" width="100%" height="100%" overflow="visible" style="display: block;" viewBox="0 0 14.4 14.4" fill="none" xmlns="http://www.w3.org/2000/svg">
<g id="tanker-truck">
<path id="Vector" d="M4.2 10.5H9V9H1.35C1.2106 9 1.14091 9 1.08295 9.01152C0.844932 9.05886 0.658872 9.24492 0.611526 9.48294C0.6 9.5409 0.6 9.61062 0.6 9.75C0.6 9.88938 0.6 9.9591 0.611526 10.0171C0.658872 10.2551 0.844932 10.4411 1.08295 10.4885C1.14091 10.5 1.2106 10.5 1.35 10.5H1.8" stroke="var(--stroke-0, #00A3F6)" stroke-width="0.9" stroke-linecap="round" stroke-linejoin="round"/>
<path id="Vector_2" d="M10.2 10.5H9V5.7C9 5.13431 9 4.85147 9.17574 4.67573C9.35148 4.5 9.63432 4.5 10.2 4.5H10.6411C11.3048 4.5 11.6367 4.5 11.9118 4.65576C12.1869 4.81152 12.3577 5.09608 12.6991 5.66521L13.458 6.93C13.6279 7.2132 13.7129 7.35486 13.7564 7.51206C13.8 7.66926 13.8 7.83444 13.8 8.16474V9.3C13.8 9.86568 13.8 10.1485 13.6243 10.3243C13.4485 10.5 13.1657 10.5 12.6 10.5M10.2 10.5C10.2 11.1628 10.7372 11.7 11.4 11.7C12.0628 11.7 12.6 11.1628 12.6 10.5M10.2 10.5C10.2 9.83724 10.7372 9.3 11.4 9.3C12.0628 9.3 12.6 9.83724 12.6 10.5M13.5 7.5H12C11.4343 7.5 11.1515 7.5 10.9757 7.32426C10.8 7.14852 10.8 6.86568 10.8 6.3V6" stroke="var(--stroke-0, #00A3F6)" stroke-width="0.9" stroke-linecap="round" stroke-linejoin="round"/>
<path id="Vector_3" d="M4.2 10.5C4.2 11.1628 3.66274 11.7 3 11.7C2.33726 11.7 1.8 11.1628 1.8 10.5C1.8 9.83724 2.33726 9.3 3 9.3C3.66274 9.3 4.2 9.83724 4.2 10.5Z" stroke="var(--stroke-0, #00A3F6)" stroke-width="0.9" stroke-linecap="round" stroke-linejoin="round"/>
<path id="Vector_4" d="M0.721914 3.93133C0.643212 4.29335 0.6 4.68757 0.6 5.1C0.6 5.51243 0.643212 5.90665 0.721914 6.26868C0.82335 6.7353 0.874068 6.96864 1.20371 7.23432C1.53336 7.5 1.8647 7.5 2.52738 7.5H5.57262C6.23532 7.5 6.56664 7.5 6.89628 7.23432C7.22592 6.96864 7.27668 6.7353 7.37808 6.26868C7.4568 5.90665 7.5 5.51243 7.5 5.1C7.5 4.68757 7.4568 4.29335 7.37808 3.93133C7.27668 3.46469 7.22592 3.23137 6.89628 2.96569C6.56664 2.7 6.23532 2.7 5.57262 2.7H2.52738C1.8647 2.7 1.53336 2.7 1.20371 2.96569C0.874068 3.23137 0.82335 3.46469 0.721914 3.93133Z" stroke="var(--stroke-0, #00A3F6)" stroke-width="0.9" stroke-linecap="round" stroke-linejoin="round"/>
<path id="Vector_5" d="M5.25 2.7V7.5M2.85 7.5V2.7" stroke="var(--stroke-0, #00A3F6)" stroke-width="0.9" stroke-linecap="round" stroke-linejoin="round"/>
</g>
</svg>
